<svg width="158" height="20" viewBox="0 0 158 20" fill="none" xmlns="http://www.w3.org/2000/svg">
<path d="M4.73684 9.39571C4.34698 8.8499 4.11306 8.18713 4.11306 7.44639C4.11306 5.59454 5.61403 4.09357 7.46588 4.09357C9.31773 4.09357 10.8187 5.59454 10.8187 7.44639C10.8187 8.16764 10.5848 8.83041 10.1949 9.39571C11.5205 9.88304 12.6706 10.7018 13.5672 11.7349C14.4249 10.5263 14.9318 9.04483 14.9318 7.44639C14.9318 3.33333 11.5984 0 7.48538 0C3.37232 0 0 3.33333 0 7.44639C0 9.04483 0.506822 10.5263 1.36452 11.7349C2.24171 10.6823 3.4113 9.86355 4.73684 9.39571Z" fill="#FFA500"/>
<path d="M9.25926 10.2729C8.69396 10.117 8.08967 10.039 7.46589 10.039C6.84211 10.039 6.23782 10.117 5.65303 10.2729C4.23003 10.6628 2.98246 11.501 2.06628 12.6121C3.43081 14.0156 5.32164 14.9123 7.4464 14.9123C9.57115 14.9123 11.462 14.0351 12.8265 12.6121C11.9298 11.501 10.6823 10.6628 9.25926 10.2729Z" fill="white"/>
<path d="M17.3488 6.31576C17.7777 5.45806 18.3625 4.81478 19.0837 4.34695C19.8245 3.87911 20.6432 3.66469 21.5399 3.66469C22.2611 3.66469 22.9239 3.82063 23.5087 4.11303C24.113 4.40543 24.5808 4.81478 24.9122 5.32161V0.233887H28.265V14.7758H24.9122V13.1968C24.6003 13.7232 24.152 14.1325 23.5672 14.4639C22.9824 14.7758 22.3001 14.9317 21.5399 14.9317C20.6432 14.9317 19.8245 14.6978 19.0837 14.23C18.343 13.7621 17.7777 13.0994 17.3488 12.2417C16.92 11.384 16.7056 10.3898 16.7056 9.25923C16.7056 8.14812 16.92 7.17346 17.3488 6.31576ZM24.2299 7.30991C23.7621 6.82258 23.1968 6.58866 22.534 6.58866C21.8713 6.58866 21.306 6.82258 20.8381 7.30991C20.3703 7.79724 20.1364 8.44051 20.1364 9.27872C20.1364 10.1169 20.3703 10.7797 20.8381 11.267C21.306 11.7544 21.8713 12.0078 22.534 12.0078C23.1968 12.0078 23.7621 11.7738 24.2299 11.2865C24.6978 10.7992 24.9317 10.1364 24.9317 9.29821C24.9122 8.46001 24.6783 7.79724 24.2299 7.30991Z" fill="white"/>
<path d="M41.9104 3.82062L35.0293 20H31.4231L33.9377 14.4054L29.4738 3.82062H33.2359L35.77 10.6822L38.2847 3.82062H41.9104Z" fill="white"/>
<path d="M45.0292 14.4445C44.2884 14.1131 43.6842 13.6647 43.2553 13.0994C42.8265 12.5341 42.573 11.8908 42.5341 11.1891H45.8479C45.8869 11.5595 46.0623 11.8714 46.3742 12.1053C46.6861 12.3392 47.076 12.4561 47.5243 12.4561C47.9532 12.4561 48.2651 12.3782 48.499 12.2027C48.7329 12.0468 48.8498 11.8324 48.8498 11.5595C48.8498 11.2476 48.6939 11.0137 48.3625 10.8577C48.0311 10.7018 47.5048 10.5458 46.7641 10.3509C45.9843 10.1754 45.3216 9.98052 44.7953 9.76609C44.269 9.57116 43.8206 9.23977 43.4307 8.81092C43.0409 8.36258 42.8654 7.77779 42.8654 7.03705C42.8654 6.41326 43.0409 5.82847 43.3918 5.32165C43.7426 4.79533 44.2495 4.38597 44.9317 4.09358C45.614 3.80118 46.4132 3.64523 47.3294 3.64523C48.7134 3.64523 49.7855 3.97662 50.5847 4.65888C51.384 5.34114 51.8323 6.23783 51.9493 7.36843H48.8498C48.7914 6.99806 48.6354 6.68617 48.343 6.47174C48.0701 6.25732 47.6997 6.14036 47.2319 6.14036C46.842 6.14036 46.5302 6.21833 46.3352 6.37428C46.1208 6.53022 46.0233 6.72515 46.0233 6.99806C46.0233 7.30995 46.1988 7.54387 46.5302 7.69981C46.8615 7.85576 47.3879 8.0117 48.0896 8.16765C48.9083 8.38207 49.5711 8.57701 50.0779 8.79143C50.5847 8.98636 51.0331 9.31775 51.4229 9.76609C51.8128 10.2144 52.0077 10.8187 52.0272 11.579C52.0272 12.2222 51.8518 12.7875 51.4814 13.2944C51.1305 13.8012 50.6042 14.191 49.922 14.4834C49.2397 14.7758 48.46 14.9123 47.5828 14.9123C46.6276 14.9318 45.7894 14.7758 45.0292 14.4445Z" fill="white"/>
<path d="M56.0039 14.4445C55.2632 14.1131 54.6589 13.6647 54.23 13.0994C53.8012 12.5341 53.5478 11.8908 53.5088 11.1891H56.8226C56.8616 11.5595 57.0371 11.8714 57.3489 12.1053C57.6608 12.3392 58.0507 12.4561 58.499 12.4561C58.9279 12.4561 59.2398 12.3782 59.4737 12.2027C59.7076 12.0468 59.8246 11.8324 59.8246 11.5595C59.8246 11.2476 59.6686 11.0137 59.3372 10.8577C59.0059 10.7018 58.4796 10.5458 57.7388 10.3509C56.9591 10.1754 56.2963 9.98052 55.77 9.76609C55.2437 9.57116 54.7953 9.23977 54.4055 8.81092C54.0156 8.36258 53.8402 7.77779 53.8402 7.03705C53.8402 6.41326 54.0156 5.82847 54.3665 5.32165C54.7174 4.79533 55.2242 4.38597 55.9064 4.09358C56.5887 3.80118 57.3879 3.64523 58.3041 3.64523C59.6881 3.64523 60.7602 3.97662 61.5595 4.65888C62.3587 5.34114 62.807 6.23783 62.924 7.36843H59.8246C59.7661 6.99806 59.6101 6.68617 59.3178 6.47174C59.0448 6.25732 58.6745 6.14036 58.2066 6.14036C57.8168 6.14036 57.5049 6.21833 57.31 6.37428C57.0955 6.53022 56.9981 6.72515 56.9981 6.99806C56.9981 7.30995 57.1735 7.54387 57.5049 7.69981C57.8363 7.85576 58.3626 8.0117 59.0643 8.16765C59.8831 8.38207 60.5458 8.57701 61.0526 8.79143C61.5595 8.98636 62.0078 9.31775 62.3977 9.76609C62.7875 10.2144 62.9825 10.8187 63.002 11.579C63.002 12.2222 62.8265 12.7875 62.4562 13.2944C62.1053 13.8012 61.579 14.191 60.8967 14.4834C60.2144 14.7758 59.4347 14.9123 58.5575 14.9123C57.6024 14.9318 56.7447 14.7758 56.0039 14.4445Z" fill="white"/>
<path d="M75.3412 10.0975H67.7389C67.7973 10.7797 68.0118 11.306 68.4016 11.6569C68.7915 12.0078 69.2593 12.2027 69.8246 12.2027C70.6628 12.2027 71.2476 11.8518 71.579 11.1501H75.1463C74.9708 11.8713 74.6394 12.5146 74.1521 13.0994C73.6648 13.6842 73.08 14.1325 72.3587 14.4639C71.6375 14.7953 70.8383 14.9513 69.9416 14.9513C68.8695 14.9513 67.9143 14.7173 67.0761 14.269C66.2379 13.8012 65.5751 13.1579 65.1073 12.3002C64.6394 11.4425 64.4055 10.4483 64.4055 9.31773C64.4055 8.18713 64.6394 7.17348 65.1073 6.33528C65.5751 5.47758 66.2184 4.8343 67.0566 4.36647C67.8948 3.89863 68.85 3.6842 69.9416 3.6842C70.9942 3.6842 71.9494 3.89863 72.7681 4.34697C73.5868 4.79532 74.2301 5.4191 74.6979 6.2573C75.1658 7.07602 75.3997 8.05067 75.3997 9.14229C75.3997 9.43469 75.3802 9.76607 75.3412 10.0975ZM71.9494 8.24561C71.9494 7.66081 71.7544 7.21247 71.3646 6.86159C70.9747 6.53021 70.4874 6.35477 69.8831 6.35477C69.3178 6.35477 68.85 6.51071 68.4601 6.8421C68.0702 7.17348 67.8363 7.64132 67.7389 8.24561H71.9494Z" fill="white"/>
<path d="M88.3627 3.82062L81.4816 20H77.8753L80.39 14.4054L75.926 3.82062H79.6882L82.2223 10.6822L84.7369 3.82062H88.3627Z" fill="white"/>
<path d="M102.905 5.34111C102.651 4.87328 102.3 4.54189 101.832 4.28848C101.365 4.05456 100.819 3.91811 100.195 3.91811C99.1033 3.91811 98.2456 4.26899 97.5829 4.99023C96.9201 5.71148 96.6082 6.66665 96.6082 7.85573C96.6082 9.12279 96.9591 10.1169 97.6413 10.8382C98.3236 11.5594 99.2788 11.9103 100.487 11.9103C101.306 11.9103 102.008 11.6959 102.573 11.2865C103.138 10.8772 103.567 10.2729 103.821 9.47366H99.5517V6.99803H106.862V10.1169C106.608 10.9551 106.199 11.7349 105.595 12.4561C104.99 13.1774 104.25 13.7622 103.333 14.2105C102.417 14.6588 101.384 14.8733 100.234 14.8733C98.8694 14.8733 97.6608 14.5809 96.5887 13.9766C95.5166 13.3723 94.6979 12.5536 94.0936 11.4815C93.4893 10.4288 93.1969 9.20076 93.1969 7.85573C93.1969 6.49121 93.4893 5.28263 94.0936 4.21051C94.6979 3.13838 95.5166 2.31967 96.5887 1.71538C97.6413 1.11109 98.8694 0.818695 100.214 0.818695C101.871 0.818695 103.255 1.20856 104.386 2.00778C105.517 2.807 106.277 3.91811 106.628 5.32162H102.905V5.34111Z" fill="white"/>
<path d="M112.066 0.233856V14.7758H108.714V0.233856H112.066Z" fill="white"/>
<path d="M116.608 14.2494C115.751 13.7816 115.068 13.1383 114.581 12.2806C114.094 11.4229 113.84 10.4288 113.84 9.29817C113.84 8.16757 114.094 7.17341 114.581 6.31571C115.088 5.45801 115.751 4.79525 116.628 4.3469C117.485 3.87907 118.46 3.66464 119.532 3.66464C120.604 3.66464 121.579 3.89856 122.437 4.3469C123.294 4.81474 123.977 5.45801 124.483 6.31571C124.99 7.17341 125.224 8.16757 125.224 9.29817C125.224 10.4288 124.971 11.4229 124.464 12.2806C123.957 13.1383 123.275 13.8011 122.398 14.2494C121.521 14.7173 120.546 14.9317 119.474 14.9317C118.402 14.9317 117.466 14.7173 116.608 14.2494ZM121.15 11.3255C121.598 10.8576 121.832 10.1754 121.832 9.29817C121.832 8.42098 121.618 7.73872 121.17 7.27088C120.721 6.80304 120.195 6.56913 119.552 6.56913C118.889 6.56913 118.363 6.80304 117.914 7.27088C117.485 7.73872 117.271 8.42098 117.271 9.29817C117.271 10.1754 117.485 10.8576 117.914 11.3255C118.343 11.7933 118.869 12.0272 119.513 12.0272C120.136 12.0272 120.682 11.7933 121.15 11.3255Z" fill="white"/>
<path d="M131.735 4.13249C132.32 3.8206 133.002 3.66465 133.762 3.66465C134.659 3.66465 135.477 3.89857 136.218 4.34692C136.959 4.81475 137.524 5.45803 137.953 6.31573C138.382 7.17343 138.596 8.14809 138.596 9.27869C138.596 10.4093 138.382 11.4034 137.953 12.2611C137.524 13.1188 136.939 13.7816 136.218 14.2494C135.477 14.7173 134.659 14.9512 133.762 14.9512C132.982 14.9512 132.32 14.7953 131.735 14.4834C131.15 14.1715 130.702 13.7621 130.37 13.2553V14.7953H127.017V0.233856H130.37V5.36056C130.702 4.85374 131.15 4.44438 131.735 4.13249ZM134.483 7.30988C134.016 6.82255 133.45 6.58863 132.768 6.58863C132.105 6.58863 131.54 6.82255 131.072 7.30988C130.604 7.79721 130.37 8.45998 130.37 9.29818C130.37 10.1364 130.604 10.7992 131.072 11.2865C131.54 11.7738 132.105 12.0077 132.768 12.0077C133.431 12.0077 134.016 11.7543 134.483 11.267C134.951 10.7797 135.185 10.1169 135.185 9.27869C135.185 8.44048 134.951 7.77771 134.483 7.30988Z" fill="white"/>
<path d="M140.331 6.31571C140.76 5.45801 141.345 4.81474 142.066 4.3469C142.807 3.87907 143.626 3.66464 144.522 3.66464C145.302 3.66464 145.965 3.82059 146.55 4.13248C147.134 4.44437 147.583 4.85373 147.895 5.36055V3.80109H151.267V14.7563H147.914V13.1968C147.583 13.7036 147.134 14.113 146.55 14.4444C145.965 14.7563 145.283 14.9122 144.522 14.9122C143.626 14.9122 142.826 14.6783 142.086 14.2104C141.345 13.7426 140.78 13.0798 140.351 12.2221C139.922 11.3644 139.708 10.3703 139.708 9.23969C139.708 8.14807 139.902 7.17341 140.331 6.31571ZM147.212 7.30987C146.745 6.82254 146.179 6.58862 145.516 6.58862C144.854 6.58862 144.288 6.82254 143.821 7.30987C143.353 7.79719 143.119 8.44047 143.119 9.27868C143.119 10.1169 143.353 10.7797 143.821 11.267C144.288 11.7543 144.854 12.0077 145.516 12.0077C146.179 12.0077 146.745 11.7738 147.212 11.2865C147.68 10.7991 147.914 10.1364 147.914 9.29817C147.914 8.45996 147.68 7.79719 147.212 7.30987Z" fill="white"/>
<path d="M157.076 0.233856V14.7758H153.723V0.233856H157.076Z" fill="white"/>
</svg>
