<svg xmlns="http://www.w3.org/2000/svg" version="1.1" xmlns:xlink="http://www.w3.org/1999/xlink" width="512" height="512" x="0" y="0" viewBox="0 0 512.001 512.001" style="enable-background:new 0 0 512 512" xml:space="preserve" class=""><g><path d="M181.97 190.111h40.24v255.88h-40.24z" style="" fill="#fec93e" data-original="#fec93e"></path><path d="M229.106 231.899h-54.034a7.212 7.212 0 0 1-7.212-7.212v-24.493h68.458v24.493a7.211 7.211 0 0 1-7.212 7.212zM236.318 436.498H167.86v-24.493a7.212 7.212 0 0 1 7.212-7.212h54.034a7.212 7.212 0 0 1 7.212 7.212v24.493z" style="" fill="#f7a738" data-original="#f7a738" class=""></path><path d="M289.79 190.111h40.24v255.88h-40.24z" style="" fill="#fec93e" data-original="#fec93e"></path><path d="M336.928 231.899h-54.034a7.212 7.212 0 0 1-7.212-7.212v-24.493h68.458v24.493a7.211 7.211 0 0 1-7.212 7.212zM344.14 436.498h-68.458v-24.493a7.212 7.212 0 0 1 7.212-7.212h54.034a7.212 7.212 0 0 1 7.212 7.212v24.493z" style="" fill="#f7a738" data-original="#f7a738" class=""></path><path d="M397.61 190.111h40.24v255.88h-40.24z" style="" fill="#fec93e" data-original="#fec93e"></path><path d="M444.75 231.899h-54.034a7.212 7.212 0 0 1-7.212-7.212v-24.493h68.458v24.493a7.211 7.211 0 0 1-7.212 7.212zM451.962 436.498h-68.458v-24.493a7.212 7.212 0 0 1 7.212-7.212h54.034a7.212 7.212 0 0 1 7.212 7.212v24.493z" style="" fill="#f7a738" data-original="#f7a738" class=""></path><path d="M74.15 190.111h40.24v255.88H74.15z" style="" fill="#fec93e" data-original="#fec93e"></path><path d="M121.285 231.899H67.25a7.212 7.212 0 0 1-7.212-7.212v-24.493h68.458v24.493a7.21 7.21 0 0 1-7.211 7.212zM128.496 436.498H60.038v-24.493a7.212 7.212 0 0 1 7.212-7.212h54.034a7.212 7.212 0 0 1 7.212 7.212v24.493z" style="" fill="#f7a738" data-original="#f7a738" class=""></path><path d="M481.102 200.195H30.898a7.05 7.05 0 0 1-7.05-7.05v-30.117a7.05 7.05 0 0 1 7.05-7.05h450.203a7.05 7.05 0 0 1 7.05 7.05v30.117a7.049 7.049 0 0 1-7.049 7.05z" style="" fill="#fec93e" data-original="#fec93e"></path><path d="M481.102 155.977h-48.666v44.218h48.666a7.05 7.05 0 0 0 7.05-7.05v-30.117a7.05 7.05 0 0 0-7.05-7.051z" style="" fill="#efb635" data-original="#efb635"></path><path d="M492.541 467.17H19.459v-19.89c0-5.955 4.827-10.782 10.782-10.782H481.76c5.955 0 10.782 4.827 10.782 10.782v19.89h-.001z" style="" fill="#fec93e" data-original="#fec93e"></path><path d="M481.759 436.498h-44.935v30.672h55.716v-19.89c.001-5.955-4.826-10.782-10.781-10.782z" style="" fill="#efb635" data-original="#efb635"></path><path d="M508.296 497.842H3.704A3.704 3.704 0 0 1 0 494.138v-16.186c0-5.955 4.827-10.782 10.782-10.782h490.437c5.955 0 10.782 4.827 10.782 10.782v16.186a3.706 3.706 0 0 1-3.705 3.704z" style="" fill="#f7a738" data-original="#f7a738" class=""></path><path d="M501.218 467.17h-44.677v30.672h51.754a3.704 3.704 0 0 0 3.704-3.705v-16.186c.001-5.954-4.826-10.781-10.781-10.781z" style="" fill="#e8932e" data-original="#e8932e"></path><path d="M256.27 15.038 2.879 147.958a4.266 4.266 0 0 0-2.285 3.778v13.611a4.266 4.266 0 0 0 4.266 4.266h502.28a4.266 4.266 0 0 0 4.266-4.266v-13.648a4.266 4.266 0 0 0-2.237-3.753L263.485 15.083a7.675 7.675 0 0 0-7.215-.045z" style="" fill="#f7a738" data-original="#f7a738" class=""></path><path d="M509.169 147.946 263.485 15.083a7.675 7.675 0 0 0-7.215-.046l-43.934 23.046 243.219 131.53h51.585a4.266 4.266 0 0 0 4.266-4.267v-13.648a4.266 4.266 0 0 0-2.237-3.752z" style="" fill="#e8932e" data-original="#e8932e"></path></g></svg>