<svg width="24" height="24" viewBox="0 0 24 24" fill="none" xmlns="http://www.w3.org/2000/svg">
<path d="M12.7199 15.7802C12.5793 15.9209 12.3887 16 12.1899 16.0002H11.8099C11.6114 15.9979 11.4216 15.919 11.2799 15.7802L6.14985 10.6402C6.10299 10.5937 6.06579 10.5384 6.04041 10.4775C6.01502 10.4165 6.00195 10.3512 6.00195 10.2852C6.00195 10.2192 6.01502 10.1538 6.04041 10.0929C6.06579 10.0319 6.10299 9.97665 6.14985 9.93017L6.85985 9.22017C6.90548 9.1736 6.95993 9.13661 7.02003 9.11135C7.08013 9.0861 7.14466 9.07309 7.20985 9.07309C7.27504 9.07309 7.33958 9.0861 7.39967 9.11135C7.45977 9.13661 7.51423 9.1736 7.55985 9.22017L11.9999 13.6702L16.4399 9.22017C16.4863 9.1733 16.5416 9.1361 16.6026 9.11072C16.6635 9.08534 16.7288 9.07227 16.7949 9.07227C16.8609 9.07227 16.9262 9.08534 16.9871 9.11072C17.0481 9.1361 17.1034 9.1733 17.1499 9.22017L17.8499 9.93017C17.8967 9.97665 17.9339 10.0319 17.9593 10.0929C17.9847 10.1538 17.9978 10.2192 17.9978 10.2852C17.9978 10.3512 17.9847 10.4165 17.9593 10.4775C17.9339 10.5384 17.8967 10.5937 17.8499 10.6402L12.7199 15.7802Z" fill="#CDD2DB"/>
</svg>
