<svg width="238" height="182" viewBox="0 0 238 182" fill="none" xmlns="http://www.w3.org/2000/svg">
<path d="M99.5303 69.6681C99.5303 60.6505 101.306 51.7211 104.758 43.39C108.208 35.0588 113.266 27.4888 119.643 21.1124C126.019 14.736 133.589 9.67795 141.92 6.22704C150.251 2.77614 159.18 0.999996 168.198 1V69.6681H99.5303Z" fill="#2574C4"/>
<path d="M168.584 137.565C205.869 137.565 236.095 107.339 236.095 70.0539C236.095 32.7687 205.869 2.54309 168.584 2.54309C131.299 2.54309 101.073 32.7687 101.073 70.0539C101.073 107.339 131.299 137.565 168.584 137.565Z" stroke="#2574C4" stroke-width="3.27065"/>
<path d="M168.198 125.22C198.879 125.22 223.75 100.349 223.75 69.6681C223.75 38.9877 198.879 14.1163 168.198 14.1163C137.518 14.1163 112.646 38.9877 112.646 69.6681C112.646 100.349 137.518 125.22 168.198 125.22Z" stroke="#2574C4" stroke-width="3.27065"/>
<path d="M168.198 114.418C192.913 114.418 212.948 94.3832 212.948 69.6681C212.948 44.9534 192.913 24.9181 168.198 24.9181C143.483 24.9181 123.448 44.9534 123.448 69.6681C123.448 94.3832 143.483 114.418 168.198 114.418Z" stroke="#2574C4" stroke-width="3.27065"/>
<path d="M168.198 102.073C186.095 102.073 200.603 87.565 200.603 69.6681C200.603 51.7712 186.095 37.2629 168.198 37.2629C150.301 37.2629 135.793 51.7712 135.793 69.6681C135.793 87.565 150.301 102.073 168.198 102.073Z" stroke="#2574C4" stroke-width="3.27065"/>
<path d="M168.584 90.5C179.876 90.5 189.03 81.3463 189.03 70.0539C189.03 58.7619 179.876 49.6078 168.584 49.6078C157.292 49.6078 148.138 58.7619 148.138 70.0539C148.138 81.3463 157.292 90.5 168.584 90.5Z" stroke="#2574C4" stroke-width="3.27065"/>
<path d="M168.97 79.6983C174.083 79.6983 178.228 75.553 178.228 70.4397C178.228 65.3263 174.083 61.181 168.97 61.181C163.857 61.181 159.711 65.3263 159.711 70.4397C159.711 75.553 163.857 79.6983 168.97 79.6983Z" stroke="#2574C4" stroke-width="3.27065"/>
<path d="M168.198 68.8966H99.5303V138.336H168.198V68.8966Z" fill="#2574C4"/>
<path d="M31.6338 180L71.3689 115.961L111.104 180H31.6338Z" stroke="#2574C4" stroke-width="2.18043"/>
<path d="M40.8922 102.073L81.7845 167.655H0L40.8922 102.073Z" fill="#2574C4"/>
</svg>
