<svg width="205" height="171" viewBox="0 0 205 171" fill="none" xmlns="http://www.w3.org/2000/svg">
<path d="M204.67 39.0001C192.47 39.0001 180.769 43.8991 172.142 52.6196C163.516 61.3401 158.67 73.1676 158.67 85.5002C158.67 97.8328 163.516 109.66 172.142 118.381C180.769 127.101 192.47 132 204.67 132V110.413C198.134 110.413 191.865 107.788 187.243 103.116C182.621 98.4437 180.024 92.1074 180.024 85.5002C180.024 78.8928 182.621 72.5563 187.243 67.8842C191.865 63.2122 198.134 60.5875 204.67 60.5875V39.0001Z" fill="#3A86D3"/>
<path d="M204.669 0C182.126 -2.70409e-07 160.506 9.00802 144.565 25.0424C128.625 41.0768 119.669 62.824 119.669 85.5001C119.669 108.176 128.625 129.924 144.565 145.958C160.506 161.992 182.126 171 204.669 171V131.307C192.592 131.307 181.009 126.481 172.468 117.89C163.929 109.3 159.13 97.6485 159.13 85.5001C159.13 73.3513 163.929 61.7 172.468 53.1096C181.009 44.5191 192.592 39.693 204.669 39.693V0Z" fill="#2574C4"/>
<path d="M39.4267 51.0001C17.8869 51.0001 0.42627 68.4611 0.42627 90.0002C0.42627 111.539 17.8869 129 39.4267 129C60.9655 129 78.4263 111.539 78.4263 90.0002C78.4263 68.4611 60.9655 51.0001 39.4267 51.0001Z" fill="#3A86D3"/>
<path d="M39.4258 74.0005C30.59 74.0005 23.4263 81.1639 23.4263 90.0005C23.4263 98.8373 30.59 106 39.4258 106C48.2626 106 55.4263 98.8373 55.4263 90.0005C55.4263 81.1639 48.2626 74.0005 39.4258 74.0005Z" fill="#2574C4"/>
</svg>
