<svg xmlns="http://www.w3.org/2000/svg" version="1.1" xmlns:xlink="http://www.w3.org/1999/xlink" width="512" height="512" x="0" y="0" viewBox="0 0 512 512" style="enable-background:new 0 0 512 512" xml:space="preserve" class=""><g><path fill="#aee0f4" d="M390.509 481.341H146.771a22.14 22.14 0 0 1-15.669-6.498l-53.681-53.768a22.14 22.14 0 0 1-6.473-15.644V53.528a4.428 4.428 0 0 1 4.428-4.428h315.132a4.428 4.428 0 0 1 4.428 4.428v423.385a4.427 4.427 0 0 1-4.427 4.428z" opacity="1" data-original="#aee0f4" class=""></path><path fill="#fbc96d" d="M225.14 22.856c0-12.9-10.687-23.304-23.69-22.842-12.386.44-22.023 10.996-22.023 23.389V38.11h45.713z" opacity="1" data-original="#fbc96d" class=""></path><path fill="#dff8ff" d="m353.209 92.795 7.096 410.714a4.423 4.423 0 0 1-4.43 4.43l-33.02 4.06H131.489c-2.977 0-5.882-.639-8.54-1.854l-4.432-69.659a4.12 4.12 0 0 0-4.121-4.121l-72.255-7.131a20.454 20.454 0 0 1-1.854-8.53V84.186a4.436 4.436 0 0 1 4.43-4.43h295.868l8.195 8.609a4.43 4.43 0 0 1 4.429 4.43z" opacity="1" data-original="#dff8ff" class=""></path><path fill="#ffda8f" d="M273.875 96.937H130.693a4.121 4.121 0 0 1-4.121-4.121V46.059c0-8.534 6.918-15.453 15.453-15.453h120.518c8.534 0 15.453 6.918 15.453 15.453v46.758a4.12 4.12 0 0 1-4.121 4.12z" opacity="1" data-original="#ffda8f" class=""></path><path fill="#c0ecfc" d="M359.849 79.757h-19.264v409.518c0 12.548-10.178 22.726-22.726 22.726h41.99a4.43 4.43 0 0 0 4.43-4.43V84.186a4.43 4.43 0 0 0-4.43-4.429z" opacity="1" data-original="#c0ecfc" class=""></path><path fill="#8c7f8a" d="M143.876 457.449H123.13c-5.69 0-10.302-4.612-10.302-10.302v-39.611c0-5.69 4.612-10.302 10.302-10.302h20.746c5.69 0 10.302 4.612 10.302 10.302v39.611c0 5.69-4.613 10.302-10.302 10.302zM278.64 455.706l-10.35 1.743h-7.603c-5.69 0-10.302-4.612-10.302-10.302v-39.611c0-5.69 4.612-10.302 10.302-10.302h17.188c5.69 0 10.302 4.612 10.302 10.302l.765 37.868c-.001 5.69-4.613 10.302-10.302 10.302z" opacity="1" data-original="#8c7f8a"></path><path fill="#7a6e7a" d="M291.73 407.54v39.61c0 5.69-4.612 10.302-10.302 10.302h-14.157a3.785 3.785 0 0 0 3.783-3.786v-56.428h10.374c5.69 0 10.302 4.612 10.302 10.302z" opacity="1" data-original="#7a6e7a" class=""></path><path fill="#dff8ff" d="M250.437 284.616h-95.242c-7.122 0-13.32 5.236-14.999 12.672l-11.095 49.147 73.715 11.683 73.715-11.683-11.095-49.147c-1.679-7.436-7.877-12.672-14.999-12.672z" opacity="1" data-original="#dff8ff" class=""></path><path fill="#c0ecfc" d="m267.202 347.923-10.199 1.607-1.782-3.091-12.321-54.094 4.156-1.613a9.755 9.755 0 0 1 9.509 7.479l11.871 45.605z" opacity="1" data-original="#c0ecfc" class=""></path><path fill="#ff9012" d="M274.788 354.163a7.73 7.73 0 0 1-7.503-5.907l-11.746-48.433a9.76 9.76 0 0 0-9.511-7.48h-87.455a9.76 9.76 0 0 0-9.511 7.48l-11.746 48.433a7.728 7.728 0 0 1-9.329 5.688c-4.147-1.006-5.367-3.357-4.361-7.504l10.42-50.259a25.173 25.173 0 0 1 24.528-19.291h79.381l6 2.114a25.172 25.172 0 0 1 24.528 19.291l11.15 48.145c1.006 4.147 1.129 6.498-3.018 7.504a7.757 7.757 0 0 1-1.827.219z" opacity="1" data-original="#fd8087" class=""></path><path fill="#ff9400" d="M276.618 353.939a7.536 7.536 0 0 1-1.834.227 7.733 7.733 0 0 1-7.5-5.913l-.082-.33-11.662-48.099a9.754 9.754 0 0 0-9.509-7.479H242.9l-1.762-7.726-.319-1.391a17.028 17.028 0 0 0-2.864-6.336h8.077a25.184 25.184 0 0 1 24.529 19.285l11.445 50.263c1.009 4.151-1.247 6.5-5.388 7.499z" opacity="1" data-original="#fe646f" class=""></path><path fill="#c0ecfc" d="M287.679 198.925H129.66a7.726 7.726 0 1 1 0-15.452h158.019a7.726 7.726 0 1 1 0 15.452zM287.679 250.434H129.66a7.726 7.726 0 1 1 0-15.452h158.019a7.726 7.726 0 1 1 0 15.452zM263.833 147.107H150.415a7.726 7.726 0 1 1 0-15.452h113.419a7.726 7.726 0 1 1-.001 15.452z" opacity="1" data-original="#c0ecfc" class=""></path><path fill="#252196" d="m86.143 250.434-.07-.001a7.724 7.724 0 0 1-5.491-2.363l-10.833-11.235a7.726 7.726 0 1 1 11.124-10.726l5.372 5.571 13.577-13.577a7.727 7.727 0 0 1 10.927 10.927l-19.141 19.141a7.734 7.734 0 0 1-5.465 2.263zM86.143 198.925l-.07-.001a7.724 7.724 0 0 1-5.491-2.363l-10.833-11.235a7.726 7.726 0 0 1 .199-10.925 7.725 7.725 0 0 1 10.925.199l5.372 5.571 13.577-13.577a7.727 7.727 0 0 1 10.927 10.927l-19.141 19.141a7.734 7.734 0 0 1-5.465 2.263zM377.47 362.913l-13.699-2.823-22.464-14.376a116.315 116.315 0 0 1-53.628-97.977v-76.262a4.122 4.122 0 0 1 3.443-4.065l12.977-2.163a178.496 178.496 0 0 0 63.798-23.801l9.648-5.902a4.123 4.123 0 0 1 4.301 0l9.648 5.902a178.511 178.511 0 0 0 61.677 23.434c.706.126 12.862 3.979 12.862 3.979a4.12 4.12 0 0 1 3.443 4.065l-.073 73.973c0 39.566-18.384 71.335-51.66 92.74l-35.822 23.27a4.122 4.122 0 0 1-4.451.006z" opacity="1" data-original="#52d8a4" class=""></path><path fill="#2c2fc6" d="M471.713 171.474v76.45c0 39.559-20.119 76.419-53.394 97.826l-36.149 23.251a4.116 4.116 0 0 1-4.45.01l-13.949-8.921 44.524-29.937c28.093-18.08 44.875-48.82 44.875-82.229v-83.043c.7.134 1.411.258 2.122.371l12.98 2.163a4.123 4.123 0 0 1 3.441 4.059z" opacity="1" data-original="#1fc091" class=""></path><path fill="#2c2fc6" d="M358.859 318.279a83.745 83.745 0 0 1-38.611-70.542v-49.168c0-1.92 1.33-3.569 3.199-4.01a209.693 209.693 0 0 0 54.236-21.108 4.115 4.115 0 0 1 4.025 0 209.643 209.643 0 0 0 54.236 21.108c1.868.442 3.199 2.091 3.199 4.01v49.353c0 28.619-14.37 54.948-38.439 70.431l-18.585 11.954a4.12 4.12 0 0 1-4.45.005z" opacity="1" data-original="#1fc091" class=""></path><path fill="#dff8ff" d="m373.592 278.201-.07-.001a7.724 7.724 0 0 1-5.491-2.363l-21.725-22.531a7.726 7.726 0 1 1 11.123-10.726l16.265 16.867 32.821-32.822a7.726 7.726 0 0 1 10.927 0 7.726 7.726 0 0 1 .001 10.927l-38.385 38.386a7.74 7.74 0 0 1-5.466 2.263z" opacity="1" data-original="#dff8ff" class=""></path><path fill="#aee0f4" d="M122.948 433.356v76.79a20.459 20.459 0 0 1-6.037-4.193l-70.598-70.681a20.565 20.565 0 0 1-4.172-6.037h65.424l6.125-1.893 5.138 1.893a4.12 4.12 0 0 1 4.12 4.121z" opacity="1" data-original="#aee0f4" class=""></path><path fill="#ff9400" d="m302.976 393.158-.145 26.431a8.294 8.294 0 0 1-8.293 8.293l-22.467 1.353H107.565c-4.574 0-8.283-3.709-8.283-8.293v-18.708l4.663-9.076z" opacity="1" data-original="#fe646f" class=""></path><path fill="#ff9012" d="m300.137 382.609.149 10.549H102.373l-.9-10.25c0-1.926-1.955-3.828-1.499-5.668a23.495 23.495 0 0 1 5.191-9.898l18.461-20.902h131.595l24.743 3.091 14.62 17.915a23.47 23.47 0 0 1 5.553 15.163z" opacity="1" data-original="#fd8087" class=""></path><path fill="#ff8515" d="m300.286 393.158 5.002 9.076v18.708a8.294 8.294 0 0 1-8.293 8.293H270.21a8.294 8.294 0 0 0 8.293-8.293v-27.784z" opacity="1" data-original="#fb4754" class=""></path><path fill="#ff9400" d="M302.249 382.609v10.549h-23.746v-10.549c0-5.553-1.968-10.93-5.553-15.164l-17.729-21.005h26.785l17.729 21.005a23.458 23.458 0 0 1 4.931 9.795c.41 1.748-2.417 3.549-2.417 5.369z" opacity="1" data-original="#fe646f" class=""></path><path fill="#ffda8f" d="M294.689 377.242h-23.758a4.121 4.121 0 0 0-4.121 4.121v3.431c0 9.632 7.809 17.441 17.441 17.441h12.707c.967-8.246-.277-16.82-2.269-24.993z" opacity="1" data-original="#ffda8f" class=""></path><path fill="#fbc96d" d="M305.288 382.609v19.625h-21.036c-2.019 0-3.956-.34-5.748-.979v-18.646c0-1.823-.216-3.626-.628-5.367h26.785c.034.567.473 1.41.627 5.367z" opacity="1" data-original="#fbc96d" class=""></path><path fill="#ffda8f" d="M99.983 377.242h33.811a4.121 4.121 0 0 1 4.121 4.121v3.43c0 9.632-7.809 17.441-17.441 17.441H99.282v-19.326c0-1.926.237-3.832.701-5.666z" opacity="1" data-original="#ffda8f" class=""></path></g></svg>