<svg xmlns="http://www.w3.org/2000/svg" version="1.1" xmlns:xlink="http://www.w3.org/1999/xlink" width="512" height="512" x="0" y="0" viewBox="0 0 73 73" style="enable-background:new 0 0 512 512" xml:space="preserve" class=""><g><path fill="#f2f6ff" d="M64.636 43.72H31.973a3.864 3.864 0 0 1-3.863-3.864V8.548a3.864 3.864 0 0 1 3.863-3.864h32.663A3.864 3.864 0 0 1 68.5 8.548v31.308a3.864 3.864 0 0 1-3.864 3.864z" opacity="1" data-original="#f2f6ff" class=""></path><path fill="#454d6a" d="M68.5 10.02V7.316a2.633 2.633 0 0 0-2.633-2.633H30.743a2.633 2.633 0 0 0-2.633 2.633v2.702z" opacity="1" data-original="#454d6a" class=""></path><g fill="#fff"><path d="M31.01 7.64a.678.678 0 1 1-1.357.006.678.678 0 0 1 1.356-.007zM32.909 7.64a.678.678 0 1 1-1.357.006.678.678 0 0 1 1.357-.007zM34.809 7.64a.678.678 0 1 1-1.357.006.678.678 0 0 1 1.357-.007z" fill="#ffffff" opacity="1" data-original="#ffffff"></path></g><path fill="#8b2af7" d="M59.743 23.856a1.082 1.082 0 0 0-.883-1.028l-.993-.194a1.08 1.08 0 0 1-.782-.615c-.043-.113-.101-.23-.155-.339a1.088 1.088 0 0 1 .046-1.008l.506-.864c.253-.44.171-1-.198-1.343l-2.273-2.12a1.085 1.085 0 0 0-1.35-.106l-.834.56a1.085 1.085 0 0 1-.992.117c-.117-.042-.237-.093-.358-.136a1.084 1.084 0 0 1-.677-.74l-.253-.968a1.093 1.093 0 0 0-1.094-.81l-3.106.11c-.502.015-.93.38-1.023.875l-.195.996c-.07.347-.3.642-.622.782-.121.051-.234.102-.35.156a1.076 1.076 0 0 1-.997-.047l-.864-.502a1.099 1.099 0 0 0-1.343.199l-2.12 2.273c-.347.366-.39.93-.106 1.35l.564.837c.199.288.246.662.117.988-.047.117-.097.242-.14.362a1.05 1.05 0 0 1-.736.674l-.965.253a1.088 1.088 0 0 0-.81 1.093l.11 3.106c.015.506.381.938.883 1.031l.98.187c.347.07.647.292.783.623.05.113.105.23.164.35.151.315.128.69-.055.997l-.502.864c-.253.44-.167 1 .199 1.342l2.276 2.121c.37.347.93.39 1.355.105l.833-.56a1.08 1.08 0 0 1 .988-.117c.12.05.238.094.362.136.339.117.58.401.673.74l.253.969c.125.49.584.825 1.09.81l3.11-.11a1.08 1.08 0 0 0 1.027-.883l.195-.988c.07-.343.292-.643.615-.779.12-.054.237-.105.35-.16a1.04 1.04 0 0 1 1 .047l.864.502c.444.253 1 .168 1.343-.198l2.121-2.277c.346-.374.393-.93.109-1.354l-.568-.84a1.049 1.049 0 0 1-.113-.982c.047-.12.09-.237.124-.35.117-.338.401-.58.744-.673l.973-.261c.49-.128.825-.588.81-1.086zm-11.438 7.217a5.26 5.26 0 1 1 0-10.52 5.26 5.26 0 0 1 0 10.52z" opacity="1" data-original="#8b2af7"></path><path fill="#ffffff" d="M48.305 31.073a5.26 5.26 0 1 1 0-10.52 5.26 5.26 0 0 1 0 10.52z" opacity="1" data-original="#ffffff"></path><path fill="#fdcbc0" d="M45.98 53.057s-5.945.93-6.206 1.07c-.261.14-13.954-4.485-13.992-4.645-.032-.159 0-11.538 0-11.538l3.779-6.225h1.895a3.924 3.924 0 0 1 3.828 3.06l1.878 10.496z" opacity="1" data-original="#fdcbc0"></path><path fill="#fdce4b" d="M37.408 45.495h-11.64l.012-7.55 3.778-6.226h1.899a3.926 3.926 0 0 1 3.83 3.059l1.873 10.5z" opacity="1" data-original="#fdce4b"></path><path fill="#fdce4b" d="M11.745 31.71h17.56a3.469 3.469 0 0 1 3.47 3.47v30.47c0 .955-22.774.955-22.774 0l-.19-31.993a1.933 1.933 0 0 1 1.934-1.946z" opacity="1" data-original="#fdce4b"></path><path fill="#f4bc24" d="M32.432 37.039h.344v8.455h-.344z" opacity="1" data-original="#f4bc24"></path><ellipse cx="28.11" cy="17.867" fill="#251a38" rx="1.937" ry="3.181" opacity="1" data-original="#251a38"></ellipse><path fill="#251a38" d="M14.003 20.523c0 2.036 1.648 4.798 3.632 4.981.07.007.14.007.21.007 1.705 0 3.086-1.938 3.528-3.797.014-.059.028-.111.035-.17a4.73 4.73 0 0 0 .112-1.021c0-.498-.091-.975-.266-1.407a3.753 3.753 0 0 0-2.132-2.154 3.633 3.633 0 0 0-1.36-.262c-.036 0-.064 0-.099.007a3.607 3.607 0 0 0-2.195.792.89.89 0 0 0-.126.105c-.168.137-.33.3-.477.47a3.89 3.89 0 0 0-.862 2.449z" opacity="1" data-original="#251a38"></path><path fill="#fdcbc0" d="M18.129 24.13h6.206v7.577h-6.206zM24.337 31.71l-2.154.25-4.055-.25z" opacity="1" data-original="#fdcbc0"></path><path fill="#f1b2a9" d="M24.334 22.851v5.786s-2.743 1.419-6.205.887V22.85z" opacity="1" data-original="#f1b2a9"></path><path fill="#fdcbc0" d="M18.133 19.98v3.734a5.43 5.43 0 0 0 5.428 5.428 5.43 5.43 0 0 0 5.428-5.428v-3.735a5.391 5.391 0 0 0-1.592-3.835 5.391 5.391 0 0 0-3.836-1.592 5.43 5.43 0 0 0-5.428 5.427z" opacity="1" data-original="#fdcbc0"></path><g fill="#251a38"><path d="M29.203 19.534c-3.92.505-7.563.585-10.913-.246a16.638 16.638 0 0 1-3.443-1.23c.24-5.928 4.58-7.317 8.441-7.284 2.792.027 5.33.798 5.902 1.137.086.053.173.106.26.173 3.515 2.34 4.027 7.45-.247 7.45z" fill="#251a38" opacity="1" data-original="#251a38"></path><ellipse cx="23.299" cy="21.853" rx=".507" ry=".748" fill="#251a38" opacity="1" data-original="#251a38"></ellipse><ellipse cx="26.903" cy="21.853" rx=".507" ry=".748" fill="#251a38" opacity="1" data-original="#251a38"></ellipse></g><path fill="#ffffff" d="M23.16 24.838c-.001.03-.009.058-.009.089a2.059 2.059 0 1 0 4.118 0c0-.03-.008-.059-.009-.089z" opacity="1" data-original="#ffffff"></path><path fill="#fdcbc0" d="M16.224 20.886c-.027 1.023.808 1.874 1.864 1.902s1.153-3.676.097-3.704-1.935.78-1.961 1.802z" opacity="1" data-original="#fdcbc0"></path><path fill="#251a38" d="M20.04 17.976s-.153 3.482-.988 4.141c-.43.34-.994-.44-.994-.987v-3.154c0-.555.446-.988.994-.988a.98.98 0 0 1 .987.988z" opacity="1" data-original="#251a38"></path><path fill="#f0ecfd" d="m24.334 30.663 1.04 1.055-1.708 2.287-1.483-2.044zM22.183 31.96l-1.027 2.189-3.96-2.442.932-1.086z" opacity="1" data-original="#f0ecfd"></path><path fill="#70739c" d="M50.654 52.962v.86c0 .607-.491 1.099-1.098 1.099H27.094a.98.98 0 1 1 0-1.96h23.56z" opacity="1" data-original="#70739c"></path><path fill="#9ea1cc" d="m53.536 39.732-2.88 13.227H32.221l2.998-13.71c.112-.488.55-.83 1.044-.83h16.229c.69 0 1.201.645 1.044 1.313z" opacity="1" data-original="#9ea1cc"></path><path fill="#70739c" d="M45.718 46.932c-.178.918-1.089 1.657-2.034 1.657-.938 0-1.561-.74-1.383-1.657.185-.91 1.089-1.657 2.034-1.657.938 0 1.561.746 1.383 1.657z" opacity="1" data-original="#70739c"></path><path fill="#fdcbc0" d="m24.388 46.932-10.765 1.104s-.185-2.618-.326-4.878L4.9 42.562v8.889c.48 3.653 4.122 6.005 7.65 4.94l13.565-4.609z" opacity="1" data-original="#fdcbc0"></path><path fill="#fdce4b" d="M14.002 44.86H4.5v-3.69a9.502 9.502 0 0 1 9.502-9.502z" opacity="1" data-original="#fdce4b"></path><path fill="#f4bc24" d="M13.843 38.453v6.248h-.29a.16.16 0 0 0 0 .319h.45a.16.16 0 0 0 .159-.16v-6.407z" opacity="1" data-original="#f4bc24"></path><path fill="#fdcbc0" d="M30.844 47.575c.566.62.681 3.287.681 3.287a.774.774 0 0 1-.674.833c-.198.025-.478-.15-.72-.38-.427-.408-1.059-.52-1.619-.333l-2.397.8-1.73-4.848 2.282-1.73a.711.711 0 1 1 .776 1.189l-.172.095s2.944.397 3.573 1.087zM44.848 55.57h-4.166a.506.506 0 0 1-.505-.506c0-1.105.895-2 2-2h1.176c1.105 0 2 .895 2 2 0 .28-.226.506-.505.506z" opacity="1" data-original="#fdcbc0"></path><path fill="#70739c" d="M68.375 65.447v2.085a.777.777 0 0 1-.785.784H5.355a.777.777 0 0 1-.784-.784v-2.085c0-.425.346-.784.784-.784H67.59c.44 0 .785.359.785.784z" opacity="1" data-original="#70739c"></path><path fill="#eeebfc" d="M29.45 12.084c-4.042-.313-9.319-.127-10.21 1.635-.803 1.595-.963 3.894-.95 5.57.007 1.249.113 2.146.113 2.166l-1.316.16c-.013-.1-.14-1.217-.12-2.699.007-1.775.227-4.094 1.084-5.795.724-1.436 2.871-2.087 5.237-2.347 2.792.027 5.33.798 5.902 1.137.086.053.173.106.26.173z" opacity="1" data-original="#eeebfc"></path><path fill="#70739c" d="m22.389 26.756-3.597-.403a1.116 1.116 0 0 1-.991-1.109V23.25h.664v1.994c0 .23.173.422.402.448l3.596.404z" opacity="1" data-original="#70739c"></path><circle cx="18.129" cy="21.552" r="2.65" fill="#ff2d84" opacity="1" data-original="#ff2d84"></circle><circle cx="17.592" cy="21.552" r="2.114" fill="#fd62a1" opacity="1" data-original="#fd62a1"></circle><circle cx="17.592" cy="21.552" r="1.234" fill="#ff2d84" opacity="1" data-original="#ff2d84"></circle><path fill="#70739c" d="m22.453 27.155-.444-.053a.746.746 0 1 1 .177-1.481l.444.053a.746.746 0 0 1-.177 1.48z" opacity="1" data-original="#70739c"></path></g></svg>