<svg xmlns="http://www.w3.org/2000/svg" version="1.1" xmlns:xlink="http://www.w3.org/1999/xlink" width="512" height="512" x="0" y="0" viewBox="0 0 512 512" style="enable-background:new 0 0 512 512" xml:space="preserve" class=""><g><path fill="#766d78" d="M499.067 239.803c-7.396-21.782-31.012-33.429-52.797-26.03a41.38 41.38 0 0 0-19.863 14.399L382.37 206.46a7.727 7.727 0 0 0-6.833 13.861l44.035 21.711a41.378 41.378 0 0 0 .669 24.538c7.415 21.84 31.066 33.409 52.797 26.03a7.726 7.726 0 1 0-4.968-14.631c-13.695 4.649-28.546-2.666-33.197-16.367-4.64-13.664 2.702-28.556 16.366-33.196 13.694-4.65 28.546 2.667 33.197 16.367a7.726 7.726 0 1 0 14.631-4.97z" opacity="1" data-original="#766d78"></path><circle cx="373.858" cy="208.162" r="31.804" fill="#766d78" opacity="1" data-original="#766d78"></circle><path fill="#655e67" d="M395.435 231.523c-5.676 5.244-13.238 8.447-21.572 8.447-17.565 0-31.812-14.247-31.812-31.812s14.247-31.802 31.812-31.802c2.009 0 3.987.185 5.893.546a31.679 31.679 0 0 0-10.23 23.365c0 15.557 11.157 28.496 25.909 31.256z" opacity="1" data-original="#655e67" class=""></path><path fill="#f0a70a" d="M381.945 156.19 294.333 17.141l-71.667 49.332 98.593 131.49c7.276 9.694 20.892 11.922 30.868 5.055l23.53-16.197c9.976-6.867 12.756-20.381 6.288-30.631z" opacity="1" data-original="#f0a70a"></path><path fill="#e38803" d="m358.081 198.918-5.954 4.1c-9.972 6.861-23.591 4.636-30.864-5.058l-98.6-131.492 71.67-49.325 10.91 17.307-46.523 32.018 98.599 131.492c.247.33.494.649.762.958z" opacity="1" data-original="#e38803"></path><path fill="#fdc202" d="M87.646 250.805c-24.373-24.148-23.755-63.727 1.362-87.101L255.89 8.397c12.297-11.444 31.435-11.145 43.368.678L327.4 36.958c11.934 11.823 12.41 30.957 1.081 43.36L174.73 248.634c-23.14 25.333-62.711 26.319-87.084 2.171z" opacity="1" data-original="#fdc202"></path><circle cx="275.103" cy="60.774" r="15.736" fill="#655e67" opacity="1" data-original="#655e67" class=""></circle><path fill="#f0a70a" d="M112.712 262.48a58.813 58.813 0 0 0 5.141 4.543c-11.044-2.266-21.572-7.664-30.205-16.215-24.374-24.147-23.756-63.727 1.36-87.102L255.887 8.396c12.3-11.445 31.441-11.146 43.371.68l2.637 2.617a31.105 31.105 0 0 0-20.933 8.375l-166.889 155.31c-25.117 23.375-25.735 62.955-1.361 87.102z" opacity="1" data-original="#f0a70a"></path><path fill="#8e8391" d="M512 432.965v28.701c0 17.06-13.835 30.905-30.905 30.905H192.798V402.06h288.296c17.071 0 30.906 13.835 30.906 30.905z" opacity="1" data-original="#8e8391"></path><circle cx="335.468" cy="448.69" r="16.933" fill="#d8cecc" opacity="1" data-original="#d8cecc"></circle><circle cx="443.741" cy="448.69" r="16.933" fill="#d8cecc" opacity="1" data-original="#d8cecc"></circle><g fill="#40c1fa"><path d="M343.831 402.057h-55.63v-59.773a5.15 5.15 0 0 1 5.151-5.151h45.328a5.15 5.15 0 0 1 5.151 5.151zM459.515 402.057h-55.63v-59.773a5.15 5.15 0 0 1 5.151-5.151h45.328a5.15 5.15 0 0 1 5.151 5.151z" fill="#40c1fa" opacity="1" data-original="#40c1fa"></path></g><path fill="#07a9f0" d="M321.169 337.138a5.146 5.146 0 0 0-5.151 5.151v59.771h-27.815v-59.771a5.146 5.146 0 0 1 5.151-5.151zM436.848 337.138a5.146 5.146 0 0 0-5.151 5.151v59.771h-27.815v-59.771a5.146 5.146 0 0 1 5.151-5.151z" opacity="1" data-original="#07a9f0"></path><path fill="#766d78" d="M294.076 428.144v64.428H192.798V402.06h92.459a42.79 42.79 0 0 1 8.819 26.084z" opacity="1" data-original="#766d78"></path><path fill="#b3adb6" d="M228.947 411.908H31.134l9.675-238.471c1.306-32.198 27.788-57.627 60.012-57.627h58.439c32.224 0 58.706 25.429 60.012 57.627z" opacity="1" data-original="#b3adb6"></path><circle cx="130.04" cy="175.366" r="23.249" fill="#655e67" opacity="1" data-original="#655e67" class=""></circle><path fill="#a49ca7" d="M136.88 115.813c-32.224 0-58.71 25.425-60.018 57.628l-9.673 238.466H31.132l9.673-238.466c1.308-32.203 27.794-57.628 60.018-57.628z" opacity="1" data-original="#a49ca7"></path><path fill="#fdc202" d="M225.52 339.96H36.203c-11.202 0-20.283-9.081-20.283-20.283v-57.953c0-11.202 9.081-20.283 20.283-20.283H225.52c11.202 0 20.283 9.081 20.283 20.283v57.953c0 11.202-9.081 20.283-20.283 20.283z" opacity="1" data-original="#fdc202"></path><g fill="#fff5f4"><path d="M146.256 268.049h-3.153a7.726 7.726 0 1 0 0 15.452h3.153a7.726 7.726 0 1 0 0-15.452zM178.018 268.049h-3.154a7.726 7.726 0 1 0 0 15.452h3.154a7.726 7.726 0 1 0 0-15.452zM206.626 283.502h3.153a7.726 7.726 0 1 0 0-15.452h-3.153a7.726 7.726 0 1 0 0 15.452zM146.256 297.9h-3.153a7.726 7.726 0 1 0 0 15.452h3.153a7.726 7.726 0 1 0 0-15.452zM178.018 297.9h-3.154a7.726 7.726 0 1 0 0 15.452h3.154a7.726 7.726 0 1 0 0-15.452zM209.779 297.9h-3.153a7.726 7.726 0 1 0 0 15.452h3.153a7.726 7.726 0 1 0 0-15.452z" fill="#fff5f4" opacity="1" data-original="#fff5f4"></path></g><path fill="#fdc202" d="M10.302 511.994h239.477c5.69 0 10.302-4.612 10.302-10.302v-73.553c0-23.742-19.247-42.99-42.99-42.99H42.99c-23.742 0-42.99 19.247-42.99 42.99v73.553c0 5.69 4.612 10.302 10.302 10.302z" opacity="1" data-original="#fdc202"></path><circle cx="55.757" cy="457.25" r="16.933" fill="#655e67" opacity="1" data-original="#655e67" class=""></circle><g fill="#655e67"><path d="M211.984 424.056h-1.865v-2.573a7.726 7.726 0 1 0-15.452 0v2.573h-1.865a7.726 7.726 0 1 0 0 15.452h1.865v36.151a7.726 7.726 0 1 0 15.452 0v-36.151h1.865a7.726 7.726 0 1 0 0-15.452zM170.317 452.013h-1.865v-30.529a7.726 7.726 0 1 0-15.452 0v30.529h-1.865a7.726 7.726 0 1 0 0 15.452H153v8.195a7.726 7.726 0 1 0 15.452 0v-8.195h1.865a7.726 7.726 0 1 0 0-15.452zM128.649 432.591h-1.865v-11.107a7.726 7.726 0 1 0-15.452 0v11.107h-1.865a7.726 7.726 0 1 0 0 15.452h1.865v27.617a7.726 7.726 0 1 0 15.452 0v-27.617h1.865a7.726 7.726 0 0 0 7.726-7.726 7.725 7.725 0 0 0-7.726-7.726z" fill="#655e67" opacity="1" data-original="#655e67" class=""></path></g><path fill="#f0a70a" d="M72.257 339.96H36.201c-11.198 0-20.284-9.086-20.284-20.284v-57.948c0-11.209 9.086-20.284 20.284-20.284h36.056c-11.198 0-20.284 9.076-20.284 20.284v57.948c0 11.198 9.086 20.284 20.284 20.284zM36.056 428.144v73.545c0 5.697 4.615 10.302 10.302 10.302H10.302C4.615 511.99 0 507.385 0 501.688v-73.545c0-23.746 19.244-42.989 42.989-42.989h36.056c-23.745 0-42.989 19.244-42.989 42.99z" opacity="1" data-original="#f0a70a"></path><path fill="#fff5f4" d="M101.641 312.173H52.953a5.15 5.15 0 0 1-5.151-5.151v-30.43a5.15 5.15 0 0 1 5.151-5.151h48.688a5.15 5.15 0 0 1 5.151 5.151v30.43a5.151 5.151 0 0 1-5.151 5.151z" opacity="1" data-original="#fff5f4"></path><path fill="#ebe0da" d="M89.008 312.176H52.951a5.153 5.153 0 0 1-5.151-5.151v-30.432a5.153 5.153 0 0 1 5.151-5.151h36.056a5.153 5.153 0 0 0-5.151 5.151v30.432a5.154 5.154 0 0 0 5.152 5.151z" opacity="1" data-original="#ebe0da"></path></g></svg>