<?xml version="1.0" encoding="utf-8"?>
<!-- Generator: Adobe Illustrator 24.3.0, SVG Export Plug-In . SVG Version: 6.00 Build 0)  -->
<svg version="1.1" id="Layer_1" xmlns="http://www.w3.org/2000/svg" xmlns:xlink="http://www.w3.org/1999/xlink" x="0px" y="0px"
	 viewBox="0 0 587.5 318.5" style="enable-background:new 0 0 587.5 318.5;" xml:space="preserve">
<style type="text/css">
	.Drop_x0020_Shadow{fill:none;}
	.Outer_x0020_Glow_x0020_5_x0020_pt{fill:none;}
	.Blue_x0020_Neon{fill:none;stroke:#8AACDA;stroke-width:7;stroke-linecap:round;stroke-linejoin:round;}
	.Chrome_x0020_Highlight{fill:url(#SVGID_1_);stroke:#FFFFFF;stroke-width:0.3629;stroke-miterlimit:1;}
	.Jive_GS{fill:#FFDD00;}
	.Alyssa_GS{fill:#A6D0E4;}
	.st0{fill:none;stroke:#538DC2;stroke-width:7;stroke-linecap:round;}
	.st1{fill:#2F72B5;}
	.st2{fill:#01305B;}
	.st3{fill:#1A4C9C;}
</style>
<linearGradient id="SVGID_1_" gradientUnits="userSpaceOnUse" x1="-234.4924" y1="-190.5939" x2="-234.4924" y2="-191.5939">
	<stop  offset="0" style="stop-color:#656565"/>
	<stop  offset="0.618" style="stop-color:#1B1B1B"/>
	<stop  offset="0.6292" style="stop-color:#545454"/>
	<stop  offset="0.9831" style="stop-color:#3E3E3E"/>
</linearGradient>
<g>
	<path class="st0" d="M3.5,213.5c50.8,10.4,27,80.3,64.2,98.9c44.4,22.2,59.7-102.8,54-155.9c-1.7-23.3-28.8-33.6-32.4,0
		c-3.9,35.7,40.4,174.2,91.2,120.7l33.9-39.2c9.4-11.6,28-27.7,43.7,0c15.7,27.7,40.7,18.6,51.3,10.5l33.1-24.1"/>
	<path class="st1" d="M358.5,106.5l-68-31L587.5,0L358.5,106.5z"/>
	<path class="st2" d="M587.5,0l-219,207l38.4-78.7L587.5,0z"/>
	<path class="st1" d="M487.2,197L407,128.5L587.5,0L487.2,197z"/>
	<path class="st3" d="M368.5,207l-10-100.5L587.5,0L407,128.5L368.5,207z"/>
</g>
</svg>
